<?xml version="1.0" encoding="utf-8"?>
<!-- Generator: Adobe Illustrator 22.0.1, SVG Export Plug-In . SVG Version: 6.00 Build 0)  -->
<svg version="1.1" id="Layer_1" xmlns="http://www.w3.org/2000/svg" xmlns:xlink="http://www.w3.org/1999/xlink" x="0px" y="0px"
	 viewBox="0 0 543 100" style="enable-background:new 0 0 543 100;" xml:space="preserve">
<style type="text/css">
	.st0{fill:#00DCEC;}
</style>
<g>
	<g>
		<polygon points="23,32.5 23,36.3 23,56.8 23,75.2 29.2,78 35.5,75.2 35.5,62.3 48,56.6 48,47.4 35.5,53.1 35.5,41.7 48,36.1 
			48,26.8 41.7,24 		"/>
		<polygon class="st0" points="35.5,41.7 35.5,47.4 35.5,53.1 48,47.4 		"/>
	</g>
	<g>
		<polygon points="56,32.5 56,36.3 56,56.8 56,75.2 62.3,78 68.5,75.2 68.5,62.3 81,56.6 81,47.4 68.5,53.1 68.5,41.7 81,36.1 
			81,26.8 74.8,24 		"/>
		<polygon class="st0" points="68.5,41.7 68.5,47.4 68.5,53.1 81,47.4 		"/>
	</g>
</g>
<g>
	<path class="st0" d="M123.6,47.2c0,0.2-0.2,0.4-0.4,0.4h-2.8c-0.3,0-0.3-0.2-0.3-0.4l0.5-4.5h-4.8c-3.2,0-5,2.1-5.4,5.5l-0.7,6.6
		c0,0.4,0,0.5,0,0.6c0,2.1,1.3,3.3,3.7,3.3h8.6c0.2,0,0.3,0.2,0.3,0.4l-0.2,2.2c0,0.2-0.2,0.4-0.4,0.4h-9.2c-3.9,0-6.4-2.2-6.4-6
		c0-0.3,0-0.7,0.1-0.9l0.6-6.7c0.5-5.1,3.7-8.5,9.2-8.5h7.9c0.2,0,0.3,0.1,0.3,0.4L123.6,47.2z"/>
	<path class="st0" d="M133.1,61.4c0,0.2-0.2,0.4-0.4,0.4h-2.2c-2.7,0-4.2-1.5-4.2-3.9c0-0.2,0-0.4,0-0.6l1.9-17.7
		c0-0.3,0.2-0.4,0.4-0.4h2.6c0.2,0,0.3,0.2,0.3,0.4l-1.8,17.4c0,0.3,0,0.5,0,0.6c0,1.1,0.6,1.5,1.5,1.5h1.9c0.2,0,0.3,0.1,0.3,0.3
		L133.1,61.4z"/>
	<path class="st0" d="M150.1,55.1c-0.4,4.1-2.9,6.9-7.1,6.9H141c-3.3,0-5.5-1.8-5.5-5c0-0.2,0-0.6,0-0.7l0.3-3.5
		c0.4-4.1,2.8-6.9,7.1-6.9h1.9c3.3,0,5.5,1.8,5.5,5c0,0.2,0,0.3,0,0.7L150.1,55.1z M147.1,51.6c0-0.3,0-0.4,0-0.5
		c0-1.7-0.9-2.4-2.7-2.4h-1.2c-2.4,0-3.8,1.7-4,4.1l-0.3,3.6c0,0.3,0,0.4,0,0.5c0,1.6,0.9,2.3,2.7,2.3h1.2c2.4,0,3.8-1.7,4-4.1
		L147.1,51.6z"/>
	<path class="st0" d="M164.5,56.9l-1.4,2.4c-1.1,1.9-2.1,2.8-4.8,2.8h-1.1c-2.2,0-3.6-1.3-3.6-3.7c0-0.2,0-0.6,0-0.7l1.2-11.2
		c0-0.2,0.2-0.4,0.4-0.4h2.5c0.2,0,0.4,0.2,0.4,0.4c0,0-1.2,11.1-1.2,11.5c0,0.6,0.3,1.3,1.1,1.3h0.4c1.7,0,2.5-1,3.9-3.1l2.8-4
		l0.6-5.7c0-0.2,0.2-0.4,0.4-0.4h2.6c0.2,0,0.3,0.2,0.3,0.4l-1.5,14.8c0,0.2-0.2,0.4-0.4,0.4h-2.6c-0.3,0-0.3-0.2-0.3-0.4
		L164.5,56.9z"/>
	<path class="st0" d="M186.2,61.4c0,0.2-0.2,0.4-0.4,0.4h-2.6c-0.2,0-0.3-0.2-0.3-0.4l0.5-4.2l-1.6,2.3c-1.1,1.6-2.4,2.6-5,2.6h-0.5
		c-2.3,0-4-1.5-4-4.1c0-0.1,0-0.3,0-0.5l0.4-4.6c0.4-4.2,2.9-6.9,7.1-6.9h0.4c1.7,0,3.2,0.6,4.3,1.3l0.8-7.7c0-0.2,0.2-0.4,0.4-0.4
		h2.6c0.2,0,0.3,0.1,0.3,0.3L186.2,61.4z M180.6,57l3.1-3.9l0.4-3.3c-1.1-0.7-2.2-1.1-3.8-1.1h-0.4c-2.4,0-3.8,1.7-4,4.1
		c-0.1,1.6-0.4,4-0.4,4.8c0,0.9,0.5,1.6,1.4,1.6h0.2C178.6,59.2,179.5,58.3,180.6,57z"/>
	<path class="st0" d="M194.2,56.6v0.3c0,1.6,0.9,2.1,2.7,2.1h6.7c0.2,0,0.3,0.2,0.3,0.3v0.1l-0.2,2.1c0,0.2-0.2,0.4-0.4,0.4h-7
		c-3.3,0-5.5-1.8-5.5-5c0-0.2,0-0.6,0-0.7l0.3-3.2c0.4-4.1,2.8-6.9,7.1-6.9h2.3c3.1,0,4.9,1.3,4.9,3.7c0,0.2,0,0.6-0.1,1.2
		c-0.3,2.9-2.4,3.6-5,4.3L194.2,56.6z M194.5,53.8l4.5-1.3c1.8-0.5,3-0.9,3.1-2.2l0-0.5c0-0.7-0.6-1.2-1.4-1.2h-2.2
		c-2.4,0-3.7,1.3-4,4.1L194.5,53.8z"/>
	<path class="st0" d="M221.6,48.2c0,0.1-0.1,0.2-0.2,0.3l-2.3,1.8c-0.1,0.1-0.2,0.1-0.3,0.1c-0.1,0-0.2-0.1-0.3-0.2
		c-0.5-0.6-0.7-1.2-1.3-1.2H217c-0.5,0-0.9,0.5-1.6,1.4l-3.3,4.2l-0.7,6.8c0,0.2-0.2,0.4-0.4,0.4h-2.6c-0.3,0-0.3-0.2-0.3-0.4
		l1.5-14.8c0-0.2,0.2-0.4,0.4-0.4h2.6c0.2,0,0.3,0.2,0.3,0.4l-0.4,3.8l1.8-2.6c0.9-1.3,1.9-1.8,3.4-1.8h0.4c1.6,0,2.3,0.6,3.2,1.9
		C221.5,47.8,221.6,48,221.6,48.2z"/>
	<path class="st0" d="M235.7,61.4c0,0.2-0.2,0.4-0.4,0.4h-2.6c-0.2,0-0.3-0.1-0.3-0.3c0,0,0.1-0.6,0.4-4.3l-1.6,2.3
		c-1.1,1.6-2.4,2.6-5,2.6h-0.5c-2.3,0-4-1.5-4-4.1c0-0.1,0-0.2,0-0.5l0.4-4.6c0.4-4.2,2.9-6.9,7.1-6.9h0.4c1.5,0,3.1,0.5,4.3,1.3
		l0.1-0.6c0-0.2,0.2-0.4,0.4-0.4h2.6c0.2,0,0.3,0.1,0.3,0.3L235.7,61.4z M230.1,57l3.1-3.8l0.4-3.3c-1.1-0.7-2.2-1.1-3.8-1.1h-0.4
		c-2.4,0-3.8,1.7-4,4.1l-0.4,4.4c0,0.3,0,0.4,0,0.4c0,0.9,0.5,1.6,1.4,1.6h0.2C228.1,59.2,229,58.3,230.1,57z"/>
	<path class="st0" d="M251.9,61.4c0,0.2-0.2,0.4-0.4,0.4h-2.8c-0.2,0-0.3-0.1-0.3-0.3c0-0.1,0-0.4,0.1-0.7l2.2-20.7
		c0-0.2,0.2-0.4,0.4-0.4h14c0.2,0,0.4,0.2,0.4,0.4l-0.2,2.2c0,0.2-0.2,0.4-0.4,0.4h-10.9l-0.7,6.6h10.9c0.2,0,0.4,0.2,0.4,0.4
		l-0.2,2.2c0,0.2-0.3,0.4-0.5,0.4h-10.9L251.9,61.4z"/>
	<path class="st0" d="M280.2,61.4c0,0.2-0.2,0.4-0.4,0.4h-2.6c-0.2,0-0.3-0.1-0.3-0.3c0,0,0.1-0.6,0.4-4.3l-1.6,2.3
		c-1.1,1.6-2.4,2.6-5,2.6h-0.5c-2.3,0-4-1.5-4-4.1c0-0.1,0-0.2,0-0.5l0.4-4.6c0.4-4.2,2.9-6.9,7.1-6.9h0.4c1.5,0,3.1,0.5,4.3,1.3
		l0.1-0.6c0-0.2,0.2-0.4,0.4-0.4h2.6c0.2,0,0.3,0.1,0.3,0.3L280.2,61.4z M274.6,57l3.1-3.8l0.4-3.3c-1.1-0.7-2.2-1.1-3.8-1.1h-0.4
		c-2.4,0-3.8,1.7-4,4.1l-0.4,4.4c0,0.3,0,0.4,0,0.4c0,0.9,0.5,1.6,1.4,1.6h0.2C272.6,59.2,273.5,58.3,274.6,57z"/>
	<path class="st0" d="M297.5,48.7c0,0.2-0.2,0.4-0.4,0.4h-6.8c-1.1,0-1.9,0.4-2,1.4v0.2c0,0.8,0.6,1.2,1.5,1.4
		c1.1,0.3,2.1,0.5,3.4,0.7c2.4,0.5,4.3,1.6,4.3,3.8c0,0.3,0,0.5-0.1,1.1c-0.3,2.8-2.4,4.1-5.8,4.1h-7.1c-0.2,0-0.3-0.2-0.3-0.3
		c0,0,0.1-0.7,0.2-2.2c0-0.2,0.2-0.4,0.4-0.4h7.4c1.2,0,2-0.6,2-1.7c0-1.1-0.9-1.4-2.2-1.6c-1-0.2-2.2-0.4-3.3-0.7
		c-2.2-0.5-3.5-2-3.5-3.9c0-0.1,0-0.2,0-0.7c0.2-2.6,2.2-4.1,5.5-4.1h6.9c0.2,0,0.3,0.2,0.3,0.3L297.5,48.7z"/>
	<path class="st0" d="M309.1,61.4c0,0.2-0.2,0.4-0.4,0.4h-2.5c-2.7,0-4.3-1.5-4.3-3.9c0-0.2,0-0.3,0-0.6l0.8-7.8l-3.1-0.6
		c-0.2,0-0.4-0.2-0.4-0.4l0.2-1.9c0-0.2,0.2-0.4,0.4-0.4h3.2l0.2-1.6c0-0.3,0.1-0.5,0.5-0.7l2.2-1.4c0.1-0.1,0.2-0.1,0.3-0.1
		c0.3,0,0.5,0.2,0.5,0.4l-0.4,3.3h3.9c0.2,0,0.4,0.2,0.4,0.4l-0.3,2.5c0,0.2-0.2,0.4-0.4,0.4h-3.9c-0.3,2.8-0.8,7.5-0.8,8.1
		c0,0.8,0.5,1.4,1.5,1.4h2.2c0.2,0,0.3,0.1,0.3,0.3L309.1,61.4z"/>
	<path class="st0" d="M324.2,61.4c0,0.2-0.2,0.4-0.4,0.4H321c-0.2,0-0.3-0.1-0.3-0.3c0-0.1,0-0.4,0.1-0.7l2.2-20.7
		c0-0.2,0.2-0.4,0.4-0.4h14c0.2,0,0.4,0.2,0.4,0.4l-0.2,2.2c0,0.2-0.2,0.4-0.4,0.4h-10.9l-0.7,6.6h10.9c0.2,0,0.4,0.2,0.4,0.4
		l-0.2,2.2c0,0.2-0.3,0.4-0.5,0.4h-10.9L324.2,61.4z"/>
	<path class="st0" d="M352.9,55.1c-0.4,4.1-2.9,6.9-7.1,6.9h-1.9c-3.3,0-5.5-1.8-5.5-5c0-0.2,0-0.6,0-0.7l0.3-3.5
		c0.4-4.1,2.8-6.9,7.1-6.9h1.9c3.3,0,5.5,1.8,5.5,5c0,0.2,0,0.3,0,0.7L352.9,55.1z M349.9,51.6c0-0.3,0-0.4,0-0.5
		c0-1.7-0.9-2.4-2.7-2.4H346c-2.4,0-3.8,1.7-4,4.1l-0.3,3.6c0,0.3,0,0.4,0,0.5c0,1.6,0.9,2.3,2.7,2.3h1.2c2.4,0,3.8-1.7,4-4.1
		L349.9,51.6z"/>
	<path class="st0" d="M370,48.2c0,0.1-0.1,0.2-0.2,0.3l-2.3,1.8c-0.1,0.1-0.2,0.1-0.3,0.1c-0.1,0-0.2-0.1-0.3-0.2
		c-0.5-0.6-0.7-1.2-1.3-1.2h-0.2c-0.5,0-0.9,0.5-1.6,1.4l-3.3,4.2l-0.7,6.8c0,0.2-0.2,0.4-0.4,0.4h-2.6c-0.3,0-0.3-0.2-0.3-0.4
		l1.5-14.8c0-0.2,0.2-0.4,0.4-0.4h2.6c0.2,0,0.3,0.2,0.3,0.4l-0.4,3.8l1.8-2.6c0.9-1.3,1.9-1.8,3.4-1.8h0.4c1.6,0,2.3,0.6,3.2,1.9
		C369.9,47.8,370,48,370,48.2z"/>
	<path class="st0" d="M371.9,46.6c0-0.2,0.2-0.4,0.4-0.4h2.5c0.2,0,0.4,0.2,0.4,0.4L374,57.4c0,0.3,0,0.5,0,0.6c0,0.7,0.3,1.3,1,1.3
		h0.3c1.2,0,1.9-0.8,2.8-2.1l3.2-4.9l0.6-5.7c0-0.2,0.2-0.4,0.4-0.4h2.5c0.2,0,0.4,0.2,0.4,0.4l-1.1,10.3c-0.1,0.5-0.1,0.9-0.1,1.1
		c0,0.9,0.6,1.3,1.4,1.3h0.3c1.8,0,2.9-1.1,3.7-2.4c1.1-1.8,1.5-4.7,1.8-7.8l0.3-2.5c0-0.2,0.2-0.4,0.4-0.4h2.6
		c0.2,0,0.3,0.1,0.3,0.3c0,0.1-0.1,0.6-0.3,2.9c-0.4,4-0.9,6.9-2.5,9.3c-1.4,2.1-3.3,3.3-6.6,3.3h-0.9c-2.4,0-3.9-1.4-3.9-3.8
		c0-0.2,0-0.4,0-0.6l0-0.2l-0.9,1.6c-0.9,1.6-1.9,3.1-4.4,3.1h-1.2c-2.2,0-3.6-1.2-3.6-3.6c0-0.2,0-0.5,0-0.7L371.9,46.6z"/>
	<path class="st0" d="M411,61.4c0,0.2-0.2,0.4-0.4,0.4H408c-0.2,0-0.3-0.1-0.3-0.3c0,0,0.1-0.6,0.4-4.3l-1.6,2.3
		c-1.1,1.6-2.4,2.6-5,2.6h-0.5c-2.3,0-4-1.5-4-4.1c0-0.1,0-0.2,0-0.5l0.4-4.6c0.4-4.2,2.9-6.9,7.1-6.9h0.4c1.5,0,3.1,0.5,4.3,1.3
		l0.1-0.6c0-0.2,0.2-0.4,0.4-0.4h2.6c0.2,0,0.3,0.1,0.3,0.3L411,61.4z M405.4,57l3.1-3.8l0.4-3.3c-1.1-0.7-2.2-1.1-3.8-1.1h-0.4
		c-2.4,0-3.8,1.7-4,4.1l-0.4,4.4c0,0.3,0,0.4,0,0.4c0,0.9,0.5,1.6,1.4,1.6h0.2C403.4,59.2,404.3,58.3,405.4,57z"/>
	<path class="st0" d="M429.6,48.2c0,0.1-0.1,0.2-0.2,0.3l-2.3,1.8c-0.1,0.1-0.2,0.1-0.3,0.1c-0.1,0-0.2-0.1-0.3-0.2
		c-0.5-0.6-0.7-1.2-1.3-1.2H425c-0.5,0-0.9,0.5-1.6,1.4l-3.3,4.2l-0.7,6.8c0,0.2-0.2,0.4-0.4,0.4h-2.6c-0.3,0-0.3-0.2-0.3-0.4
		l1.5-14.8c0-0.2,0.2-0.4,0.4-0.4h2.6c0.2,0,0.3,0.2,0.3,0.4l-0.4,3.8l1.8-2.6c0.9-1.3,1.9-1.8,3.4-1.8h0.4c1.6,0,2.3,0.6,3.2,1.9
		C429.5,47.8,429.6,48,429.6,48.2z"/>
	<path class="st0" d="M443.7,61.4c0,0.2-0.2,0.4-0.4,0.4h-2.6c-0.2,0-0.3-0.2-0.3-0.4l0.5-4.2l-1.6,2.3c-1.1,1.6-2.4,2.6-5,2.6h-0.5
		c-2.3,0-4-1.5-4-4.1c0-0.1,0-0.3,0-0.5l0.4-4.6c0.4-4.2,2.9-6.9,7.1-6.9h0.4c1.7,0,3.2,0.6,4.3,1.3l0.8-7.7c0-0.2,0.2-0.4,0.4-0.4
		h2.6c0.2,0,0.3,0.1,0.3,0.3L443.7,61.4z M438.1,57l3.1-3.9l0.4-3.3c-1.1-0.7-2.2-1.1-3.8-1.1h-0.4c-2.4,0-3.8,1.7-4,4.1
		c-0.1,1.6-0.4,4-0.4,4.8c0,0.9,0.5,1.6,1.4,1.6h0.2C436.1,59.2,437,58.3,438.1,57z"/>
	<path class="st0" d="M469.8,61.4c0,0.2-0.2,0.4-0.4,0.4H457c-0.3,0-0.3-0.2-0.3-0.4l2.2-21.3c0-0.2,0.2-0.4,0.4-0.4h2.8
		c0.2,0,0.3,0.2,0.3,0.4l-1.9,18.4h9.3c0.2,0,0.4,0.2,0.4,0.4L469.8,61.4z"/>
	<path class="st0" d="M486.6,61.4c0,0.2-0.2,0.4-0.4,0.4h-2.6c-0.2,0-0.3-0.1-0.3-0.3c0,0,0.1-0.6,0.4-4.3l-1.6,2.3
		c-1.1,1.6-2.4,2.6-5,2.6h-0.5c-2.3,0-4-1.5-4-4.1c0-0.1,0-0.2,0-0.5l0.4-4.6c0.4-4.2,2.9-6.9,7.1-6.9h0.4c1.5,0,3.1,0.5,4.3,1.3
		l0.1-0.6c0-0.2,0.2-0.4,0.4-0.4h2.6c0.2,0,0.3,0.1,0.3,0.3L486.6,61.4z M481,57l3.1-3.8l0.4-3.3c-1.1-0.7-2.2-1.1-3.8-1.1h-0.4
		c-2.4,0-3.8,1.7-4,4.1l-0.4,4.4c0,0.3,0,0.4,0,0.4c0,0.9,0.5,1.6,1.4,1.6h0.2C479,59.2,479.9,58.3,481,57z"/>
	<path class="st0" d="M496.1,50.8l1.6-2.3c1.1-1.6,2.4-2.6,5-2.6h0.5c2.3,0,4,1.5,4,4.1c0,0.1,0,0.5-0.1,0.9l-0.4,4
		c-0.4,4.2-2.9,6.9-7.1,6.9h-7.8c-0.2,0-0.3-0.1-0.3-0.3c0,0,0.1-0.6,2.3-22c0-0.2,0.2-0.4,0.4-0.4h2.6c0.2,0,0.3,0.2,0.3,0.4
		L496.1,50.8z M495.6,54.8l-0.4,4.1h4.3c2.4,0,3.8-1.7,4-4.1c0.1-1.5,0.4-4.1,0.4-4.5c0-0.8-0.5-1.6-1.4-1.6h-0.2
		c-1.5,0-2.5,1-3.5,2.3L495.6,54.8z"/>
	<path class="st0" d="M522.8,48.7c0,0.2-0.2,0.4-0.4,0.4h-6.8c-1.1,0-1.9,0.4-2,1.4v0.2c0,0.8,0.6,1.2,1.5,1.4
		c1.1,0.3,2.1,0.5,3.4,0.7c2.4,0.5,4.3,1.6,4.3,3.8c0,0.3,0,0.5-0.1,1.1c-0.3,2.8-2.4,4.1-5.8,4.1h-7.1c-0.2,0-0.3-0.2-0.3-0.3
		c0,0,0.1-0.7,0.2-2.2c0-0.2,0.2-0.4,0.4-0.4h7.4c1.2,0,2-0.6,2-1.7c0-1.1-0.9-1.4-2.2-1.6c-1-0.2-2.2-0.4-3.3-0.7
		c-2.2-0.5-3.5-2-3.5-3.9c0-0.1,0-0.2,0-0.7c0.2-2.6,2.2-4.1,5.5-4.1h6.9c0.2,0,0.3,0.2,0.3,0.3L522.8,48.7z"/>
</g>
</svg>
